<?xml version="1.0" encoding="UTF-8" standalone="no"?>
<!DOCTYPE svg PUBLIC "-//W3C//DTD SVG 1.1//EN" "http://www.w3.org/Graphics/SVG/1.1/DTD/svg11.dtd">
<svg version="1.1" xmlns="http://www.w3.org/2000/svg" xmlns:xlink="http://www.w3.org/1999/xlink" preserveAspectRatio="xMidYMid meet" viewBox="0 0 640 640" width="32" height="32"><defs><path d="" id="eclZsymIX"></path><path d="M619.06 0C630.63 0 640 9.37 640 20.94C640 145.35 640 497.64 640 622.06C640 633.62 630.63 642.99 619.06 642.99C495.25 642.99 144.75 642.99 20.94 642.99C9.37 642.99 0 633.62 0 622.06C0 497.64 0 145.35 0 20.94C0 9.37 9.37 0 20.94 0C144.75 0 495.25 0 619.06 0Z" id="b5O67mctbq"></path><path d="M592.09 90.54C592.09 119.09 570.62 142.27 544.17 142.27C517.73 142.27 496.26 119.09 496.26 90.54C496.26 61.98 517.73 38.8 544.17 38.8C570.62 38.8 592.09 61.98 592.09 90.54Z" id="amt3McNOJ"></path><path d="M171.12 218.03C171.12 249.64 147.35 275.3 118.07 275.3C88.8 275.3 65.03 249.64 65.03 218.03C65.03 186.41 88.8 160.75 118.07 160.75C147.35 160.75 171.12 186.41 171.12 218.03Z" id="a31WuVHUl2"></path><path d="M585.24 73.91C585.24 83.09 578.34 90.54 569.84 90.54C561.34 90.54 554.44 83.09 554.44 73.91C554.44 64.73 561.34 57.28 569.84 57.28C578.34 57.28 585.24 64.73 585.24 73.91Z" id="a1GC6Xx9CG"></path><path d="M118.07 239.27C118.07 247.94 111.56 254.98 103.53 254.98C95.5 254.98 88.98 247.94 88.98 239.27C88.98 230.61 95.5 223.57 103.53 223.57C111.56 223.57 118.07 230.61 118.07 239.27Z" id="b3AkHDdvA9"></path><path d="M443.21 434.21C277.79 680.56 189.38 659.01 177.97 369.54C520.21 166.29 608.63 187.85 443.21 434.21Z" id="bPwRM7QyA"></path><path d="M495.39 454.53C432.07 463.77 490.25 391.71 432.07 450.83C373.89 509.96 440.63 415.73 370.47 434.21C323.69 446.52 309.43 441.09 327.69 417.91" id="hilGe5hAC"></path></defs><g><g><g><g><use xlink:href="#eclZsymIX" opacity="1" fill-opacity="0" stroke="#000000" stroke-width="1" stroke-opacity="1"></use></g></g><g><use xlink:href="#b5O67mctbq" opacity="1" fill="#25b905" fill-opacity="1"></use></g><g><use xlink:href="#amt3McNOJ" opacity="1" fill="#ffffff" fill-opacity="1"></use></g><g><use xlink:href="#a31WuVHUl2" opacity="1" fill="#ffffff" fill-opacity="1"></use></g><g><use xlink:href="#a1GC6Xx9CG" opacity="1" fill="#000000" fill-opacity="1"></use></g><g><use xlink:href="#b3AkHDdvA9" opacity="1" fill="#000000" fill-opacity="1"></use></g><g><use xlink:href="#bPwRM7QyA" opacity="1" fill="#ff0000" fill-opacity="1"></use><g><use xlink:href="#bPwRM7QyA" opacity="1" fill-opacity="0" stroke="#000000" stroke-width="1" stroke-opacity="1"></use></g></g><g><g><use xlink:href="#hilGe5hAC" opacity="1" fill-opacity="0" stroke="#000000" stroke-width="1" stroke-opacity="1"></use></g></g></g></g></svg>