<?xml version="1.0" encoding="UTF-8" standalone="no"?>
<!DOCTYPE svg PUBLIC "-//W3C//DTD SVG 1.1//EN" "http://www.w3.org/Graphics/SVG/1.1/DTD/svg11.dtd">
<svg version="1.1" xmlns="http://www.w3.org/2000/svg" xmlns:xlink="http://www.w3.org/1999/xlink" preserveAspectRatio="xMidYMid meet" viewBox="0 0 640 640" width="32" height="32"><defs><path d="" id="eclZsymIX"></path><path d="M619.06 0C630.63 0 640 9.37 640 20.94C640 145.35 640 497.64 640 622.06C640 633.62 630.63 642.99 619.06 642.99C495.25 642.99 144.75 642.99 20.94 642.99C9.37 642.99 0 633.62 0 622.06C0 497.64 0 145.35 0 20.94C0 9.37 9.37 0 20.94 0C144.75 0 495.25 0 619.06 0Z" id="b5O67mctbq"></path><path d="M588.82 454.27C588.82 468.81 567.35 480.61 540.91 480.61C514.47 480.61 493 468.81 493 454.27C493 439.73 514.47 427.93 540.91 427.93C567.35 427.93 588.82 439.73 588.82 454.27Z" id="e1DD4lbzZ0"></path><path d="M171.12 248.97C171.12 263.5 147.35 275.3 118.07 275.3C88.8 275.3 65.03 263.5 65.03 248.97C65.03 234.43 88.8 222.63 118.07 222.63C147.35 222.63 171.12 234.43 171.12 248.97Z" id="d9ZuA5pkr"></path><path d="M568.94 458.69C568.94 467.87 562.04 475.32 553.54 475.32C545.04 475.32 538.13 467.87 538.13 458.69C538.13 449.51 545.04 442.06 553.54 442.06C562.04 442.06 568.94 449.51 568.94 458.69Z" id="d1e8iceVlq"></path><path d="M118.07 239.27C118.07 247.94 111.56 254.98 103.53 254.98C95.5 254.98 88.98 247.94 88.98 239.27C88.98 230.61 95.5 223.57 103.53 223.57C111.56 223.57 118.07 230.61 118.07 239.27Z" id="cgdbWatrG"></path><path d="M493 540.28C395.34 365.64 253.95 340.64 68.82 465.28" id="a1x31EarIt"></path></defs><g><g><g><g><use xlink:href="#eclZsymIX" opacity="1" fill-opacity="0" stroke="#000000" stroke-width="1" stroke-opacity="1"></use></g></g><g><use xlink:href="#b5O67mctbq" opacity="1" fill="#25b905" fill-opacity="1"></use></g><g><use xlink:href="#e1DD4lbzZ0" opacity="1" fill="#ffffff" fill-opacity="1"></use></g><g><use xlink:href="#d9ZuA5pkr" opacity="1" fill="#ffffff" fill-opacity="1"></use></g><g><use xlink:href="#d1e8iceVlq" opacity="1" fill="#000000" fill-opacity="1"></use></g><g><use xlink:href="#cgdbWatrG" opacity="1" fill="#000000" fill-opacity="1"></use></g><g><g><use xlink:href="#a1x31EarIt" opacity="1" fill-opacity="0" stroke="#000000" stroke-width="28" stroke-opacity="1"></use></g></g></g></g></svg>